<mxfile host="app.diagrams.net" modified="2023-06-12T08:57:35.696Z" agent="Mozilla/5.0 (Windows NT 10.0; Win64; x64) AppleWebKit/537.36 (KHTML, like Gecko) Chrome/108.0.0.0 YaBrowser/23.1.3.949 Yowser/2.5 Safari/537.36" version="21.3.8" etag="XsIb5LWBnEJyJ-Ftxpmw" type="github">
  <diagram name="Страница 1" id="k2f1sP4He24fKJXqd6K8">
    <mxGraphModel>
      <root>
        <mxCell id="0" />
        <mxCell id="1" parent="0" />
      </root>
    </mxGraphModel>
  </diagram>
</mxfile>
